# xmcd
#
# Track frame offsets:
#	150
#	17132
#	30422
#	43952
#	64540
#	75747
#	89575
#	104305
#	118977
#	135570
#	146127
#	159985
#	174122
#	185642
#	198335
#	220527
#
# Disc length: 3122 seconds
#
# Revision: 3
# Processed by: cddbd v1.5.2PL0 Copyright (c) Steve Scherf et al.
# Submitted via: EasyCDDAExtractor 16.0.6.1
#
DISCID=da0c3010
DTITLE=Various Artist - C-060 Country Festival Vol. 1
DYEAR=1992
DGENRE=Country
TTITLE0=Tanya Tucker and Friends - The Night They Drove Ole Dixie Down
TTITLE1=Charlie Rich and His All Stars - Behind Closed Doors
TTITLE2=Merle Haggard and Friends - Working Man Blues
TTITLE3=Nitty Gritty Dirt Band - Cadillac Ranch
TTITLE4=George Jones - No Show Jones
TTITLE5=Anne Murray - Danny's Song
TTITLE6=Don Williams - When I'm With You
TTITLE7=Loretta Lynn - Coal Miner's Daughter
TTITLE8=The Bellamy Brothers - Redneck Girl
TTITLE9=Hoyt Axton and Tanya Tucker - Boney Fingers
TTITLE10=Charlie Rich and His All Stars - Since I Fell For You
TTITLE11=Anne Murray - A Little Good News
TTITLE12=Stella Parton - Standard Lies
TTITLE13=Don Williams - You're My Best Friend
TTITLE14=Merle Haggard and Friends - The Bottle Let Me Down
TTITLE15=Tammy Wynette - Stand By Your Man
EXTD=YEAR: 1992 ID3G: 2
EXTT0=
EXTT1=
EXTT2=
EXTT3=
EXTT4=
EXTT5=
EXTT6=
EXTT7=
EXTT8=
EXTT9=
EXTT10=
EXTT11=
EXTT12=
EXTT13=
EXTT14=
EXTT15=
PLAYORDER=
